<svg xmlns="http://www.w3.org/2000/svg" width="443.861" height="30.036" viewBox="0 0 443.861 30.036"><g transform="translate(-3.738 0.006)"><path d="M310.9,9.289a3.049,3.049,0,0,1-.9,1.343,2.984,2.984,0,0,1-1.4.784,8.526,8.526,0,0,1-1.6.447,8.66,8.66,0,0,1-1.7.112h-7.6l1.9-5.484h7.5a8.659,8.659,0,0,1,1.7.112,5.264,5.264,0,0,1,1.4.448,1.483,1.483,0,0,1,.8.783,1.877,1.877,0,0,1-.1,1.455m-3.1,11.528a3.233,3.233,0,0,1-1,1.343,10.562,10.562,0,0,1-1.5.895,8.673,8.673,0,0,1-1.8.559,9.7,9.7,0,0,1-1.8.112h-8.1l2.2-6.155h7.8a11.374,11.374,0,0,1,1.9.112,3.971,3.971,0,0,1,1.6.559,2.1,2.1,0,0,1,.9,1.011,2.975,2.975,0,0,1-.2,1.567m13.4-16.9C319.3-.335,310.8,0,304.2,0H278.7l9,5.147-9.1,24.844H294a93.523,93.523,0,0,0,12.5-.559,17.949,17.949,0,0,0,8.4-3.693c1.7-1.455,4-4.029,4-6.6a3.264,3.264,0,0,0-1.2-2.575c-1.8-1.79-6.9-1.9-6.9-1.9s4.4-.112,7.2-2.35c2.1-1.679,4.7-5.148,3.2-8.393" transform="translate(-1 0)" fill="#fff"/><path d="M334.638,22.656l8.351-17.118h-11.5L319.938,29.995h15.9c6.1,0,8.3-7.335,8.3-7.335Z" transform="translate(-1 0.019)" fill="#fff"/><path d="M430,30H418.3L426,12.873h-9.5l3.6-7.335h29.5s-1.8,7.335-8.4,7.335h-3.3Z" transform="translate(-2 0.019)" fill="#fff"/><path d="M415.4,5.645H400.1c-4.1,0-13.2-.445-12.4,6.227.2,2,3.7,4.223,8,7.332,2.2,1.667,3.6,2.335,3.6,2.779.1.444-.5.555-.8.555H383.9l1.9,7.558h12.5c3.7,0,8.7-.444,11.1-4a5.917,5.917,0,0,0,1.2-3.114,3.837,3.837,0,0,0-1.5-2.891l-1.8-1.333c-1.3-.889-7-4.335-7-5.112,0-.333.2-.667.5-.667a15.461,15.461,0,0,1,3.2-.223h4c5.8,0,7.4-7.113,7.4-7.113" transform="translate(-2 -0.082)" fill="#fff"/><path d="M373.943,5.545h-11.6L346.084,30h12.8c6.9,0,8.316-7.429,8.316-7.429h-6.88l6.243-9.234L370.9,29.988H381Z" transform="translate(-2 0.012)" fill="#fff"/><path d="M29.564,30.03,19.258,14.576,13.23,30.03H1.249L9.83,6.128,5.455.008H21.3l9.625,13.453L36.078.008H48.231L37.05,30.03Z" transform="translate(2.489 -0.001)" fill="#fff"/><path d="M85.568,30.007l-7.1-11.459L74,30.007H63.4L72.539,5.534h7.195L86.54,15.767,90.332,5.534h10.6L91.79,30.007Z" transform="translate(1.738 0.008)" fill="#fff"/><path d="M182.462,30.033l-7.195-11.471L170.7,30.033H160.1l9.237-24.5h7.195l6.9,10.244,3.792-10.244h10.695l-9.237,24.5Z" transform="translate(1.974 -0.003)" fill="#fff"/><path d="M55.986,30h-11.2L53.749,5.526h11.2Z" transform="translate(2.254 0.017)" fill="#fff"/><path d="M117.107,30.042H105.634l6.514-17.152H103.5l2.82-7.347h27.321l-2.82,7.347h-7.195Z" transform="translate(1.599 -0.012)" fill="#fff"/><path d="M153.795,30.007,129.2,29.99l9.334-24.456h24.5l-2.1,5.569-12.876-.008-1.847,4.447,13.044-.016-1.682,4.454-13.016.009-1.556,4.219,12.978.008Z" transform="translate(1.858 0.008)" fill="#fff"/><path d="M204.445,5.534h14.487a16.3,16.3,0,0,1,5.639.884,6.892,6.892,0,0,1,3.5,2.432,7.182,7.182,0,0,1,1.264,3.869,12.805,12.805,0,0,1-.972,5.09,20.447,20.447,0,0,1-2.625,4.864,17.948,17.948,0,0,1-3.986,3.87,19.472,19.472,0,0,1-5.153,2.542,21.278,21.278,0,0,1-6.125.884H195.5Zm9.82,16.14a6.031,6.031,0,0,0,3.986-4.092,3.679,3.679,0,0,0,0-3.207c-.486-.774-1.556-1.216-3.111-1.216h-4.375L207.556,22h4.57a7.166,7.166,0,0,0,2.139-.331Z" transform="translate(1.964 0.06)" fill="#fff"/><path d="M259.5,6.676c2.431.774,5.4,3,5.793,6.1.486,3.433-.98,6.844-2.73,9.505-3.6,5.2-9.319,7.282-15.07,7.64-4.57.332-12.445.332-14.487-5.758-2.139-6.422,2.625-12.955,7-15.391A25.011,25.011,0,0,1,259.5,6.68Zm-11.852,6.614c-2.528.885-5.347,3.654-4.667,7.086.583,2.99,5.25,2.436,7.1,1.772,2.333-.775,5.736-3.433,5.153-6.644-.583-3.322-4.764-3.211-7.584-2.214Z" transform="translate(0.939 0)" fill="#fff"/></g></svg>